<?xml version="1.0" encoding="utf-8"?>
<!-- Generator: Adobe Illustrator 25.2.0, SVG Export Plug-In . SVG Version: 6.00 Build 0)  -->
<svg version="1.1" id="_x39_a5c15f4-7944-40bc-b8da-d63b7d478a28"
	 xmlns="http://www.w3.org/2000/svg" xmlns:xlink="http://www.w3.org/1999/xlink" x="0px" y="0px" viewBox="0 0 842 778.9"
	 style="enable-background:new 0 0 842 778.9;" xml:space="preserve">
<style type="text/css">
	.st0{opacity:0.5;}
	.st1{fill:url(#SVGID_1_);}
	.st2{fill:#F2F2F2;}
	.st3{fill:#E0E0E0;}
	.st4{opacity:0.7;fill:#6A10C4;enable-background:new    ;}
	.st5{fill:url(#SVGID_2_);}
	.st6{fill:#F5F5F5;}
	.st7{fill:url(#SVGID_3_);}
	.st8{fill:#FFFFFF;}
	.st9{clip-path:url(#SVGID_5_);}
	.st10{opacity:0.4;fill:#6A10C4;enable-background:new    ;}
	.st11{fill:url(#SVGID_6_);}
	.st12{fill:url(#SVGID_7_);}
	.st13{clip-path:url(#SVGID_9_);}
	.st14{opacity:0.4;fill:#BDBDBD;enable-background:new    ;}
	.st15{fill:url(#SVGID_10_);}
	.st16{opacity:0.7;fill:#3AD29F;enable-background:new    ;}
	.st17{fill:url(#SVGID_11_);}
	.st18{fill:#6A10C4;}
	.st19{fill:#3AD29F;}
	.st20{fill:#F55F44;}
	.st21{fill:#FDD835;}
	.st22{fill:url(#SVGID_12_);}
	.st23{fill:url(#SVGID_13_);}
	.st24{fill:url(#SVGID_14_);}
	.st25{fill:#47E6B1;}
	.st26{fill:#4D8AF0;}
	.st27{opacity:0.5;fill:#47E6B1;enable-background:new    ;}
</style>
<g class="st0">
	
		<linearGradient id="SVGID_1_" gradientUnits="userSpaceOnUse" x1="378.37" y1="45.19" x2="378.37" y2="647.79" gradientTransform="matrix(1 0 0 -1 0 778)">
		<stop  offset="0" style="stop-color:#808080;stop-opacity:0.25"/>
		<stop  offset="0.54" style="stop-color:#808080;stop-opacity:0.12"/>
		<stop  offset="1" style="stop-color:#808080;stop-opacity:0.1"/>
	</linearGradient>
	<rect x="154.1" y="130.2" class="st1" width="448.4" height="602.6"/>
</g>
<rect x="160" y="138.4" class="st2" width="434.4" height="581.6"/>
<rect x="193.9" y="162.9" class="st3" width="149.5" height="4.7"/>
<rect x="193.9" y="183.9" class="st4" width="149.5" height="4.7"/>
<rect x="365.5" y="162.9" class="st3" width="149.5" height="4.7"/>
<rect x="388.9" y="296" class="st3" width="149.5" height="4.7"/>
<rect x="392.4" y="308.9" class="st3" width="149.5" height="4.7"/>
<rect x="399.4" y="321.7" class="st3" width="149.5" height="4.7"/>
<rect x="388.9" y="502.8" class="st3" width="149.5" height="4.7"/>
<rect x="392.4" y="515.6" class="st3" width="149.5" height="4.7"/>
<rect x="399.4" y="528.4" class="st3" width="149.5" height="4.7"/>
<g class="st0">
	
		<linearGradient id="SVGID_2_" gradientUnits="userSpaceOnUse" x1="274.44" y1="368.68" x2="274.44" y2="529.84" gradientTransform="matrix(1 0 0 -1 0 778)">
		<stop  offset="0" style="stop-color:#808080;stop-opacity:0.25"/>
		<stop  offset="0.54" style="stop-color:#808080;stop-opacity:0.12"/>
		<stop  offset="1" style="stop-color:#808080;stop-opacity:0.1"/>
	</linearGradient>
	<rect x="195" y="248.2" class="st5" width="158.8" height="161.2"/>
</g>
<rect x="196" y="251.7" class="st6" width="156.3" height="154.2"/>
<g class="st0">
	
		<linearGradient id="SVGID_3_" gradientUnits="userSpaceOnUse" x1="274.44" y1="416.56" x2="274.44" y2="516.99" gradientTransform="matrix(1 0 0 -1 0 778)">
		<stop  offset="0" style="stop-color:#808080;stop-opacity:0.25"/>
		<stop  offset="0.54" style="stop-color:#808080;stop-opacity:0.12"/>
		<stop  offset="1" style="stop-color:#808080;stop-opacity:0.1"/>
	</linearGradient>
	<rect x="201.5" y="261" class="st7" width="145.8" height="100.4"/>
</g>
<rect id="e1f34465-d008-41db-868b-e00503fb87b3" x="202.5" y="262.2" class="st8" width="143.8" height="96.9"/>
<g>
	<defs>
		<rect id="SVGID_4_" x="202.5" y="262.2" width="143.8" height="96.9"/>
	</defs>
	<clipPath id="SVGID_5_">
		<use xlink:href="#SVGID_4_"  style="overflow:visible;"/>
	</clipPath>
	<g class="st9">
		<polygon class="st10" points="190.4,355.6 226.6,299.5 241.7,324.1 274.4,290.2 302.5,324.1 327,273.9 390,374.3 185.7,367.3 		
			"/>
		<circle class="st10" cx="218.4" cy="276.2" r="10.5"/>
	</g>
</g>
<g class="st0">
	
		<linearGradient id="SVGID_6_" gradientUnits="userSpaceOnUse" x1="274.44" y1="161.97" x2="274.44" y2="323.13" gradientTransform="matrix(1 0 0 -1 0 778)">
		<stop  offset="0" style="stop-color:#808080;stop-opacity:0.25"/>
		<stop  offset="0.54" style="stop-color:#808080;stop-opacity:0.12"/>
		<stop  offset="1" style="stop-color:#808080;stop-opacity:0.1"/>
	</linearGradient>
	<rect x="195" y="454.9" class="st11" width="158.8" height="161.2"/>
</g>
<rect x="196" y="458.4" class="st6" width="156.3" height="154.2"/>
<g class="st0">
	
		<linearGradient id="SVGID_7_" gradientUnits="userSpaceOnUse" x1="274.44" y1="209.85" x2="274.44" y2="310.28" gradientTransform="matrix(1 0 0 -1 0 778)">
		<stop  offset="0" style="stop-color:#808080;stop-opacity:0.25"/>
		<stop  offset="0.54" style="stop-color:#808080;stop-opacity:0.12"/>
		<stop  offset="1" style="stop-color:#808080;stop-opacity:0.1"/>
	</linearGradient>
	<rect x="201.5" y="467.7" class="st12" width="145.8" height="100.4"/>
</g>
<rect id="c95ac4f6-be4d-44a3-92c2-5c8066e2b531" x="202.5" y="468.9" class="st8" width="143.8" height="96.9"/>
<g>
	<defs>
		<rect id="SVGID_8_" x="202.5" y="468.9" width="143.8" height="96.9"/>
	</defs>
	<clipPath id="SVGID_9_">
		<use xlink:href="#SVGID_8_"  style="overflow:visible;"/>
	</clipPath>
	<g class="st13">
		<polygon class="st14" points="190.4,562.3 226.6,506.2 241.7,530.8 274.4,496.9 302.5,530.8 327,480.6 390,581 185.7,574 		"/>
		<circle class="st14" cx="218.4" cy="482.9" r="10.5"/>
	</g>
</g>
<g class="st0">
	
		<linearGradient id="SVGID_10_" gradientUnits="userSpaceOnUse" x1="664.9462" y1="-23.8573" x2="664.9462" y2="578.7427" gradientTransform="matrix(0.9808 0.1949 0.1949 -0.9808 -207.6368 582.1729)">
		<stop  offset="0" style="stop-color:#808080;stop-opacity:0.25"/>
		<stop  offset="0.54" style="stop-color:#808080;stop-opacity:0.12"/>
		<stop  offset="1" style="stop-color:#808080;stop-opacity:0.1"/>
	</linearGradient>
	<polygon class="st15" points="220,691.5 337.4,100.4 777.3,187.8 659.8,778.9 	"/>
</g>
<rect x="207.2" y="219.9" transform="matrix(0.1949 -0.9808 0.9808 0.1949 -27.8777 840.3308)" class="st8" width="581.6" height="434.4"/>
<rect x="515.7" y="20.3" transform="matrix(0.1949 -0.9808 0.9808 0.1949 246.0121 648.5438)" class="st3" width="4.7" height="308.3"/>
<rect x="429.7" y="453.2" transform="matrix(0.1949 -0.9808 0.9808 0.1949 -247.9356 912.735)" class="st3" width="4.7" height="308.3"/>
<rect x="390.1" y="507.8" transform="matrix(0.1949 -0.9808 0.9808 0.1949 -298.9553 889.5905)" class="st3" width="4.7" height="238.2"/>
<rect x="311.5" y="594.3" transform="matrix(0.1949 -0.9808 0.9808 0.1949 -373.7481 822.0396)" class="st4" width="4.7" height="88.7"/>
<rect x="434.9" y="108.7" transform="matrix(0.1949 -0.9808 0.9808 0.1949 169.8162 578.3666)" class="st4" width="4.7" height="154.2"/>
<rect x="490.4" y="85.2" transform="matrix(0.1949 -0.9808 0.9808 0.1949 176.8156 663.7067)" class="st3" width="4.7" height="277.9"/>
<rect x="382" y="196.1" transform="matrix(0.1949 -0.9808 0.9808 0.1949 83.8511 562.1752)" class="st16" width="4.7" height="67.7"/>
<rect x="494.8" y="125.6" transform="matrix(0.1949 -0.9808 0.9808 0.1949 125.7888 712.8516)" class="st3" width="4.7" height="308.3"/>
<g class="st0">
	
		<linearGradient id="SVGID_11_" gradientUnits="userSpaceOnUse" x1="664.3611" y1="173.5027" x2="664.3611" y2="332.3227" gradientTransform="matrix(0.9808 0.1949 0.1949 -0.9808 -207.6405 582.1699)">
		<stop  offset="0" style="stop-color:#808080;stop-opacity:0.25"/>
		<stop  offset="0.54" style="stop-color:#808080;stop-opacity:0.12"/>
		<stop  offset="1" style="stop-color:#808080;stop-opacity:0.1"/>
	</linearGradient>
	<polygon class="st17" points="342.1,514.5 373,358.7 644.5,412.7 613.5,568.5 	"/>
</g>
<rect x="415.8" y="326.4" transform="matrix(0.1949 -0.9808 0.9808 0.1949 -56.8948 856.753)" class="st8" width="155.3" height="273.3"/>
<rect x="489.6" y="152" transform="matrix(0.1949 -0.9808 0.9808 0.1949 95.726 728.9329)" class="st3" width="4.7" height="308.3"/>
<rect x="347.5" y="428.3" transform="matrix(0.1949 -0.9808 0.9808 0.1949 -111.4035 754.8389)" class="st18" width="113.3" height="33.9"/>
<rect x="422.1" y="458.5" transform="matrix(0.1949 -0.9808 0.9808 0.1949 -95.9729 833.9703)" class="st19" width="75.9" height="33.9"/>
<rect x="495.7" y="487.5" transform="matrix(0.1949 -0.9808 0.9808 0.1949 -79.2239 912.4116)" class="st20" width="40.9" height="33.9"/>
<rect x="538.4" y="478.8" transform="matrix(0.1949 -0.9808 0.9808 0.1949 -19.3632 967.7828)" class="st21" width="82.9" height="33.9"/>
<linearGradient id="SVGID_12_" gradientUnits="userSpaceOnUse" x1="810.5991" y1="10.4618" x2="810.5991" y2="415.2959" gradientTransform="matrix(1 0 0 -1 -179 717.46)">
	<stop  offset="0" style="stop-color:#B3B3B3;stop-opacity:0.25"/>
	<stop  offset="0.54" style="stop-color:#B3B3B3;stop-opacity:0.1"/>
	<stop  offset="1" style="stop-color:#B3B3B3;stop-opacity:5.000000e-02"/>
</linearGradient>
<path class="st22" d="M701.5,350c-59.7-62.1-158.4-64-220.4-4.3c-0.9,0.9-1.8,1.8-2.7,2.7c-59,59.5-60,156.3-2.3,217.1
	c52.3,55.1,136.8,64.4,199.9,22.1l112.7,117.2c2.9,3,7.7,3.1,10.7,0.2l28.1-27c3-2.9,3.1-7.7,0.2-10.7L715,550
	C759.6,488.8,753.9,404.5,701.5,350z M666.3,538.5c-44.4,42.7-115,41.3-157.7-3.1s-41.3-115,3.1-157.7c44.4-42.7,115-41.3,157.6,3.1
	C712.1,425.2,710.7,495.8,666.3,538.5C666.4,538.5,666.4,538.5,666.3,538.5z"/>
<linearGradient id="SVGID_13_" gradientUnits="userSpaceOnUse" x1="685.4937" y1="270.91" x2="685.4937" y2="290.4" gradientTransform="matrix(1 0 0 -1 -179 717.46)">
	<stop  offset="0" style="stop-color:#000000;stop-opacity:0.12"/>
	<stop  offset="0.55" style="stop-color:#000000;stop-opacity:9.000000e-02"/>
	<stop  offset="1" style="stop-color:#000000;stop-opacity:2.000000e-02"/>
</linearGradient>
<path class="st23" d="M506.5,427.1c-12.5,0-12.6,19.5,0,19.5S519,427.1,506.5,427.1z"/>
<linearGradient id="SVGID_14_" gradientUnits="userSpaceOnUse" x1="775.0093" y1="293.2733" x2="775.0093" y2="352.8546" gradientTransform="matrix(1 0 0 -1 -179 717.46)">
	<stop  offset="0" style="stop-color:#000000;stop-opacity:0.12"/>
	<stop  offset="0.55" style="stop-color:#000000;stop-opacity:9.000000e-02"/>
	<stop  offset="1" style="stop-color:#000000;stop-opacity:2.000000e-02"/>
</linearGradient>
<path class="st24" d="M593.9,364.6c-33.8-0.8-64.5,16.2-80.8,41.7c-5.3,8.3,9.8,15.7,15.1,7.4c13.5-21.2,39.2-34.6,67-33.9
	c29.1,0.7,55.6,17.4,69.7,40.5c5.3,8.8,19.3,0.8,14-7.9C661.8,384.5,628.8,365.5,593.9,364.6z"/>
<path class="st18" d="M713.7,344.1c-59.7-62.1-158.4-64-220.4-4.3c-0.9,0.9-1.8,1.8-2.7,2.7c-59,59.5-60,156.3-2.3,217.1
	c52.3,55.1,136.8,64.4,199.9,22l112.7,117.2c2.9,3,7.7,3.1,10.7,0.2l28.1-27c3-2.9,3.1-7.7,0.2-10.7L727.2,544
	C771.8,482.9,766.1,398.6,713.7,344.1z M678.6,532.5c-44.4,42.7-115,41.3-157.7-3.1s-41.3-115,3.1-157.7
	c44.4-42.7,115-41.3,157.6,3.1C724.4,419.2,723,489.8,678.6,532.5C678.6,532.5,678.6,532.5,678.6,532.5z"/>
<path class="st18" d="M518.7,421.1c-12.5,0-12.6,19.5,0,19.5S531.3,421.1,518.7,421.1z"/>
<path class="st18" d="M606.1,358.7c-33.8-0.8-64.5,16.2-80.8,41.7c-5.3,8.3,9.8,15.7,15.1,7.4c13.5-21.2,39.2-34.6,67-33.9
	c29.1,0.7,55.6,17.4,69.7,40.5c5.3,8.8,19.3,0.8,14-7.9C674,378.5,641,359.5,606.1,358.7z"/>
<rect x="121.4" y="663.9" class="st25" width="3.5" height="19.8"/>
<rect x="113.3" y="672.1" class="st25" width="19.8" height="3.5"/>
<path class="st26" d="M571.9,7.9c-2-0.9-3-3.1-2.4-5.2c0-0.2,0.1-0.3,0.1-0.5l0,0c0.1-1.2-0.8-2.2-2-2.3c-0.7,0-1.4,0.3-1.9,0.9l0,0
	c-0.1,0.1-0.2,0.3-0.2,0.4c-0.9,2-3.1,3-5.2,2.4c-0.2,0-0.3-0.1-0.5-0.1l0,0c-1.2-0.1-2.2,0.8-2.3,2c-0.1,0.7,0.3,1.5,0.9,1.9l0,0
	c0.1,0.1,0.3,0.2,0.4,0.2c2,0.9,3,3.1,2.4,5.2c0,0.2-0.1,0.3-0.1,0.5l0,0c-0.1,1.2,0.8,2.2,2,2.3c0.8,0.1,1.5-0.3,1.9-0.9l0,0
	c0.1-0.1,0.2-0.3,0.2-0.4c0.9-2,3.1-3,5.2-2.4c0.2,0,0.3,0.1,0.5,0.1l0,0c1.2,0.1,2.2-0.8,2.3-2c0-0.7-0.3-1.4-0.9-1.9l0,0
	C572.2,8.1,572,8,571.9,7.9z"/>
<path class="st21" d="M137.4,155.1c-2-0.9-3-3.1-2.4-5.2c0-0.2,0.1-0.3,0.1-0.5l0,0c0.1-1.2-0.8-2.2-2-2.3c-0.7,0-1.4,0.3-1.9,0.9
	l0,0c-0.1,0.1-0.2,0.3-0.2,0.4c-0.9,2-3.1,3-5.2,2.4c-0.2,0-0.3-0.1-0.5-0.1l0,0c-1.2-0.1-2.2,0.8-2.3,2c0,0.7,0.3,1.4,0.9,1.9l0,0
	c0.1,0.1,0.3,0.2,0.4,0.2c2,0.9,3,3.1,2.4,5.2c0,0.2-0.1,0.3-0.1,0.5l0,0c-0.1,1.2,0.8,2.2,2,2.3c0.7,0,1.4-0.3,1.9-0.9l0,0
	c0.1-0.1,0.2-0.3,0.2-0.4c0.9-2,3.1-3,5.2-2.4c0.2,0,0.3,0.1,0.5,0.1l0,0c1.2,0.1,2.2-0.8,2.3-2c0-0.7-0.3-1.4-0.9-1.9l0,0
	C137.7,155.2,137.6,155.2,137.4,155.1z"/>
<path class="st21" d="M755.2,762.4c-2-0.9-3-3.1-2.4-5.2c0-0.2,0.1-0.3,0.1-0.5l0,0c0.1-1.2-0.8-2.2-2-2.3c-0.7,0-1.4,0.3-1.9,0.9
	l0,0c-0.1,0.1-0.2,0.3-0.2,0.4c-0.9,2-3.1,3-5.2,2.4c-0.2,0-0.3-0.1-0.5-0.1l0,0c-1.2-0.1-2.2,0.8-2.3,2c0,0.7,0.3,1.4,0.9,1.9l0,0
	c0.1,0.1,0.3,0.2,0.4,0.2c2,0.9,3,3.1,2.4,5.2c0,0.2-0.1,0.3-0.1,0.5l0,0c-0.1,1.2,0.8,2.2,2,2.3c0.7,0,1.4-0.3,1.9-0.9l0,0
	c0.1-0.1,0.2-0.3,0.2-0.4c0.9-2,3.1-3,5.2-2.4c0.2,0,0.3,0.1,0.5,0.1l0,0c1.2,0.1,2.2-0.8,2.3-2c0-0.7-0.3-1.4-0.9-1.9l0,0
	C755.5,762.5,755.4,762.4,755.2,762.4z"/>
<circle class="st20" cx="321.1" cy="75.3" r="7"/>
<circle class="st20" cx="823.3" cy="162.9" r="7"/>
<circle class="st26" cx="783.6" cy="372" r="7"/>
<circle class="st27" cx="7" cy="28.6" r="7"/>
</svg>
